<svg version="1.1" id="Layer_1" xmlns="http://www.w3.org/2000/svg" xmlns:xlink="http://www.w3.org/1999/xlink" x="0px" y="0px"
	 width="100%" viewBox="0 0 1024 1024" enable-background="new 0 0 1024 1024" xml:space="preserve">
<path fill="#000000" opacity="1.000000" stroke="none" 
	d="
M680.290771,250.650543 
	C740.933777,294.584381 779.864075,352.554352 796.767639,425.254486 
	C803.119141,452.571564 805.145813,480.340454 803.042542,508.099792 
	C796.724792,591.484497 761.329956,660.356934 696.981873,713.918640 
	C654.968933,748.889160 606.561523,770.884460 552.359192,776.804382 
	C431.618652,789.991638 336.191101,745.783997 267.965393,645.196167 
	C243.417511,609.004211 229.381454,568.176086 224.582642,524.589966 
	C214.748871,435.272736 239.618149,356.750488 300.306885,290.411530 
	C341.534302,245.345749 392.771484,216.594650 452.616272,204.203735 
	C522.036133,189.830307 588.342896,199.313416 651.092346,232.608643 
	C661.114746,237.926620 670.688477,243.968857 680.290771,250.650543 
M416.092010,445.612000 
	C428.854584,448.472076 440.867645,447.360962 451.900543,437.789978 
	C453.072235,445.342346 457.600952,446.363800 463.343109,445.734100 
	C466.636444,445.372955 470.018402,445.452362 473.329865,445.716919 
	C477.542969,446.053497 478.888306,444.291748 478.759003,440.219910 
	C478.623230,435.942505 478.150879,431.559631 479.610870,427.181854 
	C484.684296,437.729797 492.627167,444.407440 503.917145,446.422668 
	C514.924500,448.387482 525.380432,446.512543 535.513794,438.726318 
	C536.269043,447.052429 541.579651,445.618652 546.173035,445.659943 
	C549.172241,445.686920 552.201538,445.398956 555.164673,445.727264 
	C560.176941,446.282654 561.815918,444.441803 561.760437,439.320892 
	C561.504333,415.661163 561.617065,391.997467 561.599548,368.335175 
	C561.595459,362.884033 561.598938,357.432922 561.598938,352.295044 
	C560.261169,351.746033 559.810242,351.402832 559.355957,351.398285 
	C552.525574,351.329987 545.694519,351.258850 538.864014,351.282562 
	C527.049011,351.323547 528.392029,350.052032 528.208557,362.081055 
	C528.126465,367.458496 528.791321,372.901093 527.684021,378.611328 
	C505.454742,371.810455 488.207764,376.391357 477.896912,399.955261 
	C473.325775,382.277100 461.132935,376.869171 446.109161,375.717133 
	C431.713776,374.613281 418.372284,377.063232 408.395996,389.040436 
	C406.484711,386.189850 407.374359,383.764862 407.020782,381.517029 
	C406.727661,379.653564 406.545746,377.636444 404.144135,377.479523 
	C396.750397,376.996399 389.463745,377.183289 383.034058,381.678192 
	C381.584045,382.691864 380.495331,384.402802 378.417206,384.292145 
	C373.541351,377.302338 373.541351,377.303192 364.099426,377.295685 
	C361.766571,377.293854 359.431030,377.211304 357.101532,377.296844 
	C354.123993,377.406189 352.852173,375.998322 352.886536,373.092621 
	C352.931824,369.260681 352.751648,365.422577 352.903320,361.596466 
	C353.053528,357.807526 351.610626,356.059753 347.656311,356.263977 
	C343.667755,356.469940 339.660156,356.303192 335.660889,356.304352 
	C316.497772,356.309875 297.334503,356.277802 278.171570,356.343903 
	C271.063354,356.368408 268.186615,359.282227 268.058746,366.365479 
	C267.962555,371.696320 268.078033,377.031494 267.947998,382.361053 
	C267.856750,386.100464 269.294006,387.909088 273.237335,387.748291 
	C277.562012,387.571899 281.920807,388.003754 286.227692,387.679230 
	C291.087952,387.313019 292.497925,389.201569 292.427185,393.971985 
	C292.202423,409.131531 292.505890,424.298157 292.410400,439.460846 
	C292.381561,444.039917 293.834045,446.009735 298.765228,445.757477 
	C306.244080,445.374939 313.757294,445.682343 321.255798,445.661530 
	C327.449219,445.644348 328.348541,444.755646 328.564453,438.382568 
	C328.654694,435.719177 328.608032,433.050812 328.607361,430.384705 
	C328.604187,417.887024 328.701569,405.387848 328.526062,392.892548 
	C328.471100,388.977844 329.881744,387.447327 333.768524,387.682983 
	C337.254822,387.894318 340.764557,387.703094 344.263794,387.719177 
	C351.276581,387.751465 351.296814,387.759796 351.302856,394.573242 
	C351.316101,409.570465 351.417297,424.569031 351.240082,439.564148 
	C351.186127,444.130402 352.926178,445.843628 357.422333,445.714874 
	C364.581726,445.509888 371.755402,445.520142 378.915253,445.719421 
	C383.308228,445.841736 384.882263,443.934540 384.728058,439.723206 
	C384.545258,434.730988 384.927734,429.713745 384.653412,424.729980 
	C383.759247,408.485168 389.350006,405.650635 402.304962,406.658417 
	C404.063782,406.795258 406.411224,407.091248 406.786774,404.630249 
	C407.440277,400.348083 410.398560,400.582001 413.488098,400.639191 
	C417.152893,400.707092 420.819885,400.680542 424.485748,400.661194 
	C429.216034,400.636261 434.034668,401.532257 437.708862,396.921234 
	C439.252319,394.984314 442.073822,395.577972 444.104980,397.192139 
	C446.331787,398.961823 446.718414,401.487427 445.999023,404.000488 
	C445.274567,406.531067 442.850494,406.044464 440.930450,406.075012 
	C434.266846,406.180939 427.593353,405.997345 420.939178,406.284637 
	C411.741638,406.681702 404.645538,412.188232 402.298737,420.320892 
	C399.086304,431.453491 403.813538,440.543518 416.092010,445.612000 
M720.075989,376.314301 
	C702.231201,373.670288 689.001892,380.124664 680.747925,398.081635 
	C677.258118,385.459290 670.639832,378.272095 658.942200,376.137573 
	C647.677795,374.082123 637.956299,377.211700 628.227295,384.906891 
	C627.130554,375.072266 620.359863,377.455353 614.760498,377.306549 
	C611.929932,377.231323 609.092102,377.388489 606.263916,377.277832 
	C603.348511,377.163757 601.992493,378.308411 602.001404,381.342407 
	C602.059937,401.337250 602.075623,421.332397 602.017456,441.327209 
	C602.008118,444.522430 603.226807,445.771790 606.465942,445.709595 
	C614.127930,445.562439 621.800903,445.483612 629.457092,445.741913 
	C633.543701,445.879761 635.138245,444.511810 635.047058,440.359222 
	C634.842346,431.032349 634.963257,421.698517 634.927002,412.367615 
	C634.917908,410.020050 635.000977,407.686157 635.886475,405.482727 
	C636.933533,402.877167 638.873901,401.599854 641.730896,401.722290 
	C644.693542,401.849274 646.316528,403.618378 646.966736,406.243683 
	C647.359802,407.830688 647.307190,409.548401 647.312012,411.207825 
	C647.339600,420.705505 647.500610,430.208069 647.244873,439.698944 
	C647.126831,444.079102 648.174377,446.042084 653.043884,445.773499 
	C660.353271,445.370300 667.716553,445.380219 675.027527,445.768646 
	C679.866150,446.025696 681.010132,444.099701 680.875916,439.689636 
	C680.728210,434.834015 680.184753,429.884155 681.970520,424.581024 
	C686.341248,433.576660 692.981384,439.764954 702.391541,442.471008 
	C711.738831,445.158966 721.026062,443.853363 730.048401,440.740784 
	C731.700684,447.003479 730.641052,451.774811 727.003479,453.313385 
	C722.602112,455.175049 718.164429,455.277679 714.916260,450.846375 
	C713.857178,449.401520 712.456482,449.328613 710.936707,449.329224 
	C703.105225,449.332428 695.270874,449.458557 687.443481,449.279907 
	C683.568359,449.191498 682.847473,450.915955 683.625854,454.220764 
	C685.926819,463.988861 692.131104,470.240051 701.298157,473.699768 
	C712.038818,477.753296 723.191895,478.056335 734.289856,476.028381 
	C752.771912,472.651184 761.264221,464.105499 763.007629,445.473816 
	C764.995972,424.223938 763.030396,402.866608 762.922241,381.555511 
	C762.913208,379.783844 762.292603,378.085602 760.321655,377.774506 
	C754.201721,376.808624 748.027832,377.315338 741.877563,377.414429 
	C738.263367,377.472656 739.077087,382.091187 735.946960,383.380402 
	C731.476440,380.258698 726.537048,377.544312 720.075989,376.314301 
M549.120361,691.500000 
	C549.099915,663.677795 549.094177,635.855591 549.047424,608.033386 
	C549.037170,601.950806 548.479004,601.388489 542.536804,601.349976 
	C534.494995,601.297791 526.450928,601.441589 518.411011,601.306641 
	C514.877441,601.247314 513.288147,602.406616 513.292297,606.179626 
	C513.344666,653.327454 513.329773,700.475403 513.222229,747.623108 
	C513.212524,751.862061 515.044495,753.136292 518.964294,753.059448 
	C526.394897,752.914001 533.831116,753.086731 541.264282,753.033447 
	C548.673462,752.980286 549.033630,752.640869 549.062439,744.979126 
	C549.128174,727.486267 549.107239,709.993042 549.120361,691.500000 
M554.212402,538.751343 
	C554.208923,550.250305 554.202820,561.749329 554.202637,573.248291 
	C554.202393,591.080017 554.198792,608.911743 554.217041,626.743469 
	C554.219421,629.033081 553.768433,631.581604 557.110352,632.177673 
	C562.187256,633.083130 567.680420,630.275879 572.444580,633.906677 
	C576.113708,630.271423 580.702393,633.001648 584.819275,632.238464 
	C588.251343,631.602173 589.758057,630.525818 589.749084,626.904175 
	C589.675842,597.240417 589.680969,567.576111 589.788147,537.912476 
	C589.802856,533.839844 588.290649,532.206116 584.203674,532.287354 
	C576.009827,532.450378 567.806152,532.491333 559.615051,532.267944 
	C555.447083,532.154297 553.724243,533.742676 554.212402,538.751343 
M390.485779,541.253479 
	C390.421234,564.046143 390.384460,586.838928 390.262451,609.631287 
	C390.243958,613.088684 392.104431,613.773865 395.024994,613.749451 
	C403.616943,613.677612 412.211304,613.635193 420.801788,613.769226 
	C424.320526,613.824097 426.053986,612.598755 426.045288,608.909058 
	C425.994690,587.442871 426.022797,565.976440 426.018738,544.510132 
	C426.018097,541.058899 424.370667,539.374329 420.821503,539.285583 
	C416.847382,539.186157 412.752136,538.770996 408.916870,539.043518 
	C402.912384,539.470154 396.681915,537.900696 390.485779,541.253479 
M507.731445,723.500000 
	C507.740875,712.171204 507.696411,700.841919 507.793549,689.513916 
	C507.821716,686.226562 507.132446,684.049438 503.223053,683.977539 
	C494.137207,683.810486 485.056915,683.541138 475.970581,684.009033 
	C472.915161,684.166443 471.382324,685.542908 471.411133,688.656189 
	C471.446594,692.487488 471.375031,696.319641 471.401825,700.151123 
	C471.510193,715.640259 471.691895,731.129089 471.727692,746.618286 
	C471.738708,751.399597 473.969177,752.957092 478.570587,752.797791 
	C486.224792,752.532898 493.899536,752.554565 501.556061,752.780701 
	C506.197357,752.917725 507.804871,750.816650 507.744720,746.490601 
	C507.642883,739.161804 507.725739,731.830322 507.731445,723.500000 
M466.831879,623.642273 
	C466.777740,615.222290 466.777771,615.205872 458.228729,615.190613 
	C450.938141,615.177612 443.643829,615.349670 436.358307,615.162781 
	C432.416199,615.061707 431.121429,616.667480 431.141510,620.479065 
	C431.245911,640.289001 431.242981,660.100098 431.125824,679.909912 
	C431.104004,683.604431 432.467682,684.893677 436.116028,684.817688 
	C444.498444,684.643066 452.894775,684.558228 461.270233,684.860107 
	C465.772156,685.022339 466.955536,683.279175 466.914642,679.040894 
	C466.739594,660.896851 466.834381,642.750122 466.831879,623.642273 
M568.025574,377.337921 
	C565.102173,377.482361 565.212280,379.628387 565.209778,381.656860 
	C565.185425,401.444794 565.243774,421.233307 565.094971,441.020233 
	C565.065857,444.892578 566.703918,445.809448 570.202698,445.721832 
	C577.680969,445.534637 585.174438,445.458496 592.646973,445.734039 
	C596.799744,445.887207 598.241272,444.366302 598.208801,440.313538 
	C598.051758,420.700165 598.031677,401.085449 598.035583,381.471222 
	C598.036255,378.146759 596.416138,377.222656 593.367798,377.264801 
	C585.221436,377.377319 577.072388,377.303223 568.025574,377.337921 
M370.430542,504.372681 
	C364.448853,504.381226 358.466644,504.440643 352.485748,504.376099 
	C349.653687,504.345551 348.066803,505.407318 348.078949,508.408020 
	C348.109863,516.050598 348.124023,523.693359 348.115601,531.335999 
	C348.112488,534.168640 349.707703,535.056458 352.264801,535.043213 
	C361.374969,534.996033 370.485626,534.952759 379.595612,534.997864 
	C382.880981,535.014160 383.929810,533.353638 383.861511,530.322266 
	C383.760437,525.838257 383.920959,521.348450 383.825745,516.864197 
	C383.581543,505.362885 386.539581,504.147064 370.430542,504.372681 
M599.777100,354.228607 
	C599.781128,353.231873 599.830017,352.233002 599.782288,351.238770 
	C599.368225,342.614624 593.322693,336.193970 584.819641,335.325684 
	C573.897766,334.210388 565.851013,338.870026 563.613525,347.605530 
	C561.030029,357.691498 566.741333,367.305115 576.562256,369.401764 
	C588.334045,371.914948 597.884216,366.011414 599.777100,354.228607 
M573.930847,483.961670 
	C574.127930,480.144897 574.237915,476.321045 574.547668,472.513428 
	C574.832642,469.010010 576.898560,466.831238 580.388611,466.988312 
	C584.093323,467.155090 585.262634,469.985382 585.365601,473.295776 
	C585.438049,475.623444 585.203552,477.975555 585.454102,480.278870 
	C585.746643,482.968781 584.129395,487.139374 588.609863,487.403503 
	C593.503723,487.692047 592.416016,483.406860 592.598877,480.436646 
	C592.741882,478.115051 592.629700,475.778625 592.664246,473.449280 
	C592.718201,469.803955 594.305603,467.194031 598.135315,466.997498 
	C601.918396,466.803345 603.375061,469.625336 603.706116,472.809937 
	C604.083069,476.435486 604.004700,480.110931 604.069031,483.765625 
	C604.109009,486.039673 604.684692,487.696716 607.445557,487.585419 
	C609.795410,487.490631 610.655151,486.167572 610.653992,484.028015 
	C610.651733,479.701904 610.908813,475.353729 610.561157,471.054901 
	C610.038635,464.594208 605.251709,459.987488 599.104431,461.547485 
	C593.106262,463.069611 587.698425,463.962067 581.947632,461.350006 
	C581.032349,460.934326 579.565613,461.238922 578.538330,461.660278 
	C575.951782,462.721313 573.685364,463.719604 570.631592,462.419403 
	C568.155640,461.365265 567.296631,463.567780 567.315369,465.919159 
	C567.361694,471.743256 567.311768,477.568115 567.347595,483.392365 
	C567.357605,485.027313 567.141235,486.949158 569.364868,487.398254 
	C571.518921,487.833313 573.407898,487.489960 573.930847,483.961670 
M608.189575,520.395630 
	C606.032166,520.397949 603.858704,520.569214 601.720703,520.366455 
	C597.624756,519.977966 595.796997,521.614746 596.275269,525.769775 
	C596.407227,526.916443 596.415344,528.104797 596.279114,529.250122 
	C595.753174,533.669556 597.888123,535.140259 602.057251,535.065979 
	C610.277832,534.919617 618.508423,534.833435 626.723938,535.083130 
	C631.974243,535.242737 632.129272,532.108948 632.076172,528.312378 
	C632.021606,524.410400 632.566956,520.144653 626.675293,520.462036 
	C620.797485,520.778748 614.937561,519.367249 608.189575,520.395630 
M424.758545,482.155487 
	C421.279724,481.928528 417.802704,481.668335 414.321594,481.484558 
	C411.235748,481.321655 411.161316,479.141937 411.101288,476.887543 
	C411.033356,474.335236 411.916351,472.703003 414.792511,472.772003 
	C416.619873,472.815887 418.452179,472.805145 420.277985,472.723267 
	C422.191711,472.637451 424.586182,473.153259 424.687134,470.096130 
	C424.787537,467.055176 422.499329,467.295227 420.504333,467.244171 
	C418.842590,467.201630 417.174713,467.135895 415.517731,467.227936 
	C412.308624,467.406189 411.034637,465.892273 411.042358,462.760986 
	C411.049927,459.695404 412.551453,458.662262 415.401031,458.771942 
	C417.890625,458.867706 420.387848,458.762390 422.881683,458.751831 
	C424.925110,458.743134 426.548584,458.223511 426.531891,455.736725 
	C426.515717,453.322327 424.761841,453.246582 423.046326,453.237396 
	C418.224915,453.211578 413.401611,453.308319 408.582306,453.204620 
	C405.312988,453.134277 404.197357,454.712830 404.231049,457.789551 
	C404.320312,465.935486 404.354523,474.083832 404.251801,482.229248 
	C404.210236,485.526001 405.645996,487.363464 408.835663,487.472931 
	C413.649536,487.638153 418.486267,487.749115 423.287506,487.457733 
	C426.572052,487.258331 427.713745,485.422577 424.758545,482.155487 
M532.266296,472.048309 
	C532.234802,473.045654 532.140808,474.045563 532.181580,475.039948 
	C532.535217,483.652191 538.284668,488.382538 547.702271,487.834930 
	C555.952148,487.355194 561.265198,481.389648 560.660278,473.285492 
	C560.196167,467.068451 555.566650,462.286652 549.128906,461.374695 
	C540.805786,460.195648 535.340881,463.413269 532.266296,472.048309 
M486.462128,486.228638 
	C493.566437,481.354858 495.455353,474.554840 491.592926,467.758240 
	C488.163788,461.724243 479.334229,459.380157 472.120209,462.588684 
	C465.923767,465.344574 463.070679,472.650604 465.533539,479.455383 
	C468.185791,486.783569 476.490021,489.702332 486.462128,486.228638 
M519.353333,484.783997 
	C519.905090,486.949799 521.494690,487.118835 523.257690,486.692230 
	C524.997437,486.271271 525.551697,484.837982 525.588867,483.262054 
	C525.675171,479.606964 525.803772,475.942657 525.643433,472.294006 
	C525.254517,463.446014 518.163025,458.985535 509.945129,462.360870 
	C508.148895,463.098633 506.781830,464.084137 504.507416,462.768616 
	C501.770447,461.185577 500.219635,462.810272 500.252686,465.941284 
	C500.312317,471.593140 500.324371,477.246307 500.273224,482.898163 
	C500.251190,485.331818 500.717834,487.341949 503.658417,487.303467 
	C506.808075,487.262207 506.688873,484.854950 506.733002,482.647156 
	C506.799347,479.325867 506.579926,475.965393 507.021149,472.694305 
	C507.490753,469.212921 509.720154,466.885254 513.431030,466.927460 
	C516.872620,466.966583 518.426697,469.507538 518.759521,472.505127 
	C519.179688,476.288147 519.109863,480.125580 519.353333,484.783997 
M659.025391,468.979156 
	C655.082092,461.886230 648.075012,459.346252 640.400574,462.227936 
	C634.064697,464.606995 630.906250,470.979553 632.537048,478.093750 
	C634.085815,484.849945 640.097290,488.521179 648.351868,487.751831 
	C654.273193,487.199982 658.277039,483.610565 658.559143,478.601196 
	C654.722107,477.923157 654.722107,477.923157 651.475708,480.367828 
	C647.809937,483.128265 643.955566,483.003876 641.179565,480.035492 
	C638.346191,477.005768 638.133118,472.755798 640.655212,469.573578 
	C643.171509,466.398712 647.157654,465.872925 650.879822,468.471832 
	C653.490662,470.294800 655.879211,472.529572 659.025391,468.979156 
M458.352783,469.523407 
	C455.889984,463.078339 449.540527,459.946320 442.222107,461.566589 
	C435.848663,462.977661 431.278168,468.735931 431.669952,474.861053 
	C432.134644,482.126221 436.927429,487.220276 443.782837,487.735321 
	C451.863220,488.342438 456.938202,485.336914 458.304810,478.945587 
	C455.840881,477.456726 453.865753,478.123932 451.697113,479.919952 
	C447.775482,483.167786 443.350830,483.102417 440.544220,480.101532 
	C437.973602,477.352936 437.951080,471.819458 440.499481,469.091492 
	C443.270477,466.125244 447.259766,465.963318 451.232849,469.038757 
	C453.434265,470.742798 455.499237,471.447540 458.352783,469.523407 
M686.446045,483.949982 
	C688.229248,479.013214 687.109680,475.992279 682.412354,473.951416 
	C679.988586,472.898346 677.351074,472.346802 674.842712,471.474976 
	C673.357178,470.958710 671.992981,470.035400 672.380737,468.237549 
	C672.800659,466.290161 674.474182,465.808990 676.261597,465.841278 
	C677.834045,465.869690 679.064514,466.709412 680.299988,467.603271 
	C682.339539,469.078949 684.424194,469.386047 686.503540,467.653931 
	C684.059570,462.144745 678.549927,459.932373 671.809082,461.588806 
	C668.260376,462.460846 665.589661,464.401123 665.502930,468.297760 
	C665.418396,472.093750 667.700806,474.405975 671.282959,475.474548 
	C673.826111,476.233276 676.403137,476.906128 678.885132,477.831512 
	C680.172913,478.311707 681.093750,479.414246 680.690247,480.986145 
	C680.363647,482.258698 679.275330,482.813934 678.116455,483.081421 
	C676.023499,483.564667 674.194153,482.994080 672.589844,481.543518 
	C670.494080,479.648590 668.228943,479.643860 665.805420,480.840454 
	C668.330505,488.735291 678.687744,490.506866 686.446045,483.949982 
M625.636658,467.763245 
	C625.454468,465.272675 626.451904,462.145996 622.137939,462.096954 
	C617.505493,462.044342 618.441223,465.384003 618.427307,468.036682 
	C618.401245,472.997772 618.421692,477.965546 618.666077,482.918549 
	C618.765198,484.927612 618.636536,487.576660 621.872009,487.518677 
	C625.134033,487.460236 625.410889,484.905182 625.499939,482.591919 
	C625.678101,477.964783 625.604980,473.328003 625.636658,467.763245 
M626.255493,454.009552 
	C627.065247,451.391632 625.606995,449.972778 623.531921,448.902496 
	C622.035034,448.130463 620.603577,448.357147 619.406128,449.473236 
	C617.473145,451.274933 616.654297,453.501465 618.790955,455.495361 
	C621.269287,457.808075 623.861511,457.527710 626.255493,454.009552 
z"/>
<path fill="#000000" opacity="1.000000" stroke="none" 
	d="
M527.774902,415.157715 
	C524.057739,420.582825 519.671143,422.116180 514.916260,419.965363 
	C510.750214,418.080872 508.641235,412.906097 510.100464,408.148895 
	C511.421173,403.843292 515.526428,401.225006 520.116150,401.761108 
	C526.157593,402.466736 528.927490,407.074005 527.774902,415.157715 
z"/>
<path fill="#000000" opacity="1.000000" stroke="none" 
	d="
M432.799683,423.802063 
	C433.891663,419.048798 442.816498,415.980957 445.918823,418.863159 
	C446.919403,419.792725 446.772339,420.904388 446.507874,422.057343 
	C445.708954,425.540466 443.384979,427.394531 439.989990,427.909821 
	C436.779694,428.397034 434.087341,427.637878 432.799683,423.802063 
z"/>
<path fill="#000000" opacity="1.000000" stroke="none" 
	d="
M730.231567,410.843353 
	C728.539490,416.991364 725.375122,419.553162 720.462585,419.144073 
	C716.070923,418.778381 712.838074,415.492889 712.484863,411.036407 
	C712.091614,406.074860 714.503723,402.447632 719.012451,401.220398 
	C724.741211,399.661102 729.386230,403.466583 730.231567,410.843353 
z"/>
<path fill="#000000" opacity="1.000000" stroke="none" 
	d="
M548.477783,482.029663 
	C542.090088,482.204712 539.033508,479.879639 538.748779,475.040070 
	C538.489868,470.638885 541.335266,467.154266 545.641174,466.891052 
	C549.578491,466.650391 552.439331,468.491577 553.600464,472.263489 
	C554.998901,476.806305 552.937683,479.916748 548.477783,482.029663 
z"/>
<path fill="#000000" opacity="1.000000" stroke="none" 
	d="
M481.359619,467.213776 
	C485.936707,469.149414 487.205383,472.478851 486.316742,476.683441 
	C485.630310,479.931366 483.455353,481.838989 480.109406,482.249054 
	C475.394562,482.826965 471.608704,479.555389 471.354706,474.879578 
	C471.123352,470.620453 474.894806,465.693939 481.359619,467.213776 
z"/>
</svg>